<mxfile host="app.diagrams.net" modified="2024-06-14T17:03:14.801Z" agent="Mozilla/5.0 (Windows NT 10.0; Win64; x64) AppleWebKit/537.36 (KHTML, like Gecko) Chrome/124.0.0.0 Safari/537.36 OPR/110.0.0.0" etag="FCdTL-bZvYedikjBPdcS" version="24.5.4" type="device">
  <diagram id="C5RBs43oDa-KdzZeNtuy" name="Page-1">
    <mxGraphModel dx="1676" dy="898" grid="1" gridSize="10" guides="1" tooltips="1" connect="1" arrows="1" fold="1" page="1" pageScale="1" pageWidth="827" pageHeight="1169" math="0" shadow="0">
      <root>
        <mxCell id="WIyWlLk6GJQsqaUBKTNV-0" />
        <mxCell id="WIyWlLk6GJQsqaUBKTNV-1" parent="WIyWlLk6GJQsqaUBKTNV-0" />
        <mxCell id="R8iEOmkK_YvopsDsoqmB-18" value="LÃ©gende" style="swimlane;fontStyle=0;childLayout=stackLayout;horizontal=1;startSize=30;horizontalStack=0;resizeParent=1;resizeParentMax=0;resizeLast=0;collapsible=1;marginBottom=0;whiteSpace=wrap;html=1;strokeColor=none;" vertex="1" parent="WIyWlLk6GJQsqaUBKTNV-1">
          <mxGeometry x="350" y="1220" width="140" height="90" as="geometry" />
        </mxCell>
        <mxCell id="R8iEOmkK_YvopsDsoqmB-19" value="&lt;font color=&quot;#97d077&quot;&gt;pressed&amp;nbsp;&lt;/font&gt;:&amp;nbsp; &amp;nbsp; &amp;nbsp; &amp;nbsp; &amp;nbsp; &amp;nbsp;pressed" style="text;strokeColor=none;fillColor=none;align=left;verticalAlign=middle;spacingLeft=4;spacingRight=4;overflow=hidden;points=[[0,0.5],[1,0.5]];portConstraint=eastwest;rotatable=0;whiteSpace=wrap;html=1;" vertex="1" parent="R8iEOmkK_YvopsDsoqmB-18">
          <mxGeometry y="30" width="140" height="30" as="geometry" />
        </mxCell>
        <mxCell id="R8iEOmkK_YvopsDsoqmB-20" value="&lt;font color=&quot;#7ea6e0&quot;&gt;square&amp;nbsp;&lt;/font&gt;:&amp;nbsp; &amp;nbsp; &amp;nbsp; &amp;nbsp; &amp;nbsp; &amp;nbsp; &amp;nbsp; &amp;nbsp; &amp;nbsp;state" style="text;strokeColor=none;fillColor=none;align=left;verticalAlign=middle;spacingLeft=4;spacingRight=4;overflow=hidden;points=[[0,0.5],[1,0.5]];portConstraint=eastwest;rotatable=0;whiteSpace=wrap;html=1;" vertex="1" parent="R8iEOmkK_YvopsDsoqmB-18">
          <mxGeometry y="60" width="140" height="30" as="geometry" />
        </mxCell>
        <mxCell id="R8iEOmkK_YvopsDsoqmB-66" style="edgeStyle=orthogonalEdgeStyle;rounded=0;orthogonalLoop=1;jettySize=auto;html=1;" edge="1" parent="WIyWlLk6GJQsqaUBKTNV-1" source="R8iEOmkK_YvopsDsoqmB-65" target="R8iEOmkK_YvopsDsoqmB-67">
          <mxGeometry relative="1" as="geometry">
            <mxPoint x="330.0000000000002" y="580" as="targetPoint" />
          </mxGeometry>
        </mxCell>
        <mxCell id="R8iEOmkK_YvopsDsoqmB-91" style="edgeStyle=orthogonalEdgeStyle;rounded=0;orthogonalLoop=1;jettySize=auto;html=1;" edge="1" parent="WIyWlLk6GJQsqaUBKTNV-1" source="R8iEOmkK_YvopsDsoqmB-65" target="R8iEOmkK_YvopsDsoqmB-92">
          <mxGeometry relative="1" as="geometry">
            <mxPoint x="330" y="770" as="targetPoint" />
          </mxGeometry>
        </mxCell>
        <mxCell id="R8iEOmkK_YvopsDsoqmB-65" value="Idling" style="rounded=1;whiteSpace=wrap;html=1;fontSize=12;glass=0;strokeWidth=1;shadow=0;fillColor=#dae8fc;strokeColor=#6c8ebf;" vertex="1" parent="WIyWlLk6GJQsqaUBKTNV-1">
          <mxGeometry x="270" y="616.25" width="120" height="40" as="geometry" />
        </mxCell>
        <mxCell id="R8iEOmkK_YvopsDsoqmB-68" value="No" style="edgeStyle=orthogonalEdgeStyle;rounded=0;orthogonalLoop=1;jettySize=auto;html=1;entryX=0;entryY=0.5;entryDx=0;entryDy=0;" edge="1" parent="WIyWlLk6GJQsqaUBKTNV-1" source="R8iEOmkK_YvopsDsoqmB-67" target="R8iEOmkK_YvopsDsoqmB-65">
          <mxGeometry relative="1" as="geometry">
            <mxPoint x="240.00000000000023" y="520" as="targetPoint" />
            <Array as="points">
              <mxPoint x="250" y="520" />
              <mxPoint x="250" y="636" />
            </Array>
          </mxGeometry>
        </mxCell>
        <mxCell id="R8iEOmkK_YvopsDsoqmB-69" value="Yes" style="edgeStyle=orthogonalEdgeStyle;rounded=0;orthogonalLoop=1;jettySize=auto;html=1;entryX=0.5;entryY=1;entryDx=0;entryDy=0;" edge="1" parent="WIyWlLk6GJQsqaUBKTNV-1" source="R8iEOmkK_YvopsDsoqmB-67" target="R8iEOmkK_YvopsDsoqmB-70">
          <mxGeometry relative="1" as="geometry">
            <mxPoint x="330.0000000000002" y="430" as="targetPoint" />
          </mxGeometry>
        </mxCell>
        <mxCell id="R8iEOmkK_YvopsDsoqmB-67" value="Is Being called by a Captain ?" style="rhombus;whiteSpace=wrap;html=1;" vertex="1" parent="WIyWlLk6GJQsqaUBKTNV-1">
          <mxGeometry x="277.5" y="480" width="105" height="80" as="geometry" />
        </mxCell>
        <mxCell id="R8iEOmkK_YvopsDsoqmB-71" style="edgeStyle=orthogonalEdgeStyle;rounded=0;orthogonalLoop=1;jettySize=auto;html=1;entryX=0.5;entryY=1;entryDx=0;entryDy=0;" edge="1" parent="WIyWlLk6GJQsqaUBKTNV-1" source="R8iEOmkK_YvopsDsoqmB-70" target="R8iEOmkK_YvopsDsoqmB-72">
          <mxGeometry relative="1" as="geometry">
            <mxPoint x="330.0000000000002" y="350" as="targetPoint" />
          </mxGeometry>
        </mxCell>
        <mxCell id="R8iEOmkK_YvopsDsoqmB-75" style="edgeStyle=orthogonalEdgeStyle;rounded=0;orthogonalLoop=1;jettySize=auto;html=1;" edge="1" parent="WIyWlLk6GJQsqaUBKTNV-1" source="R8iEOmkK_YvopsDsoqmB-70">
          <mxGeometry relative="1" as="geometry">
            <mxPoint x="450" y="402.5" as="targetPoint" />
          </mxGeometry>
        </mxCell>
        <mxCell id="R8iEOmkK_YvopsDsoqmB-70" value="Following" style="rounded=1;whiteSpace=wrap;html=1;fontSize=12;glass=0;strokeWidth=1;shadow=0;fillColor=#dae8fc;strokeColor=#6c8ebf;" vertex="1" parent="WIyWlLk6GJQsqaUBKTNV-1">
          <mxGeometry x="270" y="382.5" width="120" height="40" as="geometry" />
        </mxCell>
        <mxCell id="R8iEOmkK_YvopsDsoqmB-73" value="No" style="edgeStyle=orthogonalEdgeStyle;rounded=0;orthogonalLoop=1;jettySize=auto;html=1;entryX=0;entryY=0.5;entryDx=0;entryDy=0;" edge="1" parent="WIyWlLk6GJQsqaUBKTNV-1" source="R8iEOmkK_YvopsDsoqmB-72" target="R8iEOmkK_YvopsDsoqmB-70">
          <mxGeometry relative="1" as="geometry">
            <Array as="points">
              <mxPoint x="250" y="290" />
              <mxPoint x="250" y="403" />
            </Array>
          </mxGeometry>
        </mxCell>
        <mxCell id="R8iEOmkK_YvopsDsoqmB-74" value="Yes" style="edgeStyle=orthogonalEdgeStyle;rounded=0;orthogonalLoop=1;jettySize=auto;html=1;entryX=0.5;entryY=1;entryDx=0;entryDy=0;" edge="1" parent="WIyWlLk6GJQsqaUBKTNV-1" source="R8iEOmkK_YvopsDsoqmB-72" target="R8iEOmkK_YvopsDsoqmB-65">
          <mxGeometry relative="1" as="geometry">
            <Array as="points">
              <mxPoint x="210" y="290" />
              <mxPoint x="210" y="676" />
              <mxPoint x="330" y="676" />
            </Array>
          </mxGeometry>
        </mxCell>
        <mxCell id="R8iEOmkK_YvopsDsoqmB-72" value="Is Being disband by a Captain ?" style="rhombus;whiteSpace=wrap;html=1;" vertex="1" parent="WIyWlLk6GJQsqaUBKTNV-1">
          <mxGeometry x="277.5" y="250" width="105" height="80" as="geometry" />
        </mxCell>
        <mxCell id="R8iEOmkK_YvopsDsoqmB-77" value="No" style="edgeStyle=orthogonalEdgeStyle;rounded=0;orthogonalLoop=1;jettySize=auto;html=1;entryX=1;entryY=0;entryDx=0;entryDy=0;" edge="1" parent="WIyWlLk6GJQsqaUBKTNV-1" source="R8iEOmkK_YvopsDsoqmB-76" target="R8iEOmkK_YvopsDsoqmB-70">
          <mxGeometry relative="1" as="geometry">
            <Array as="points">
              <mxPoint x="390" y="363" />
            </Array>
          </mxGeometry>
        </mxCell>
        <mxCell id="R8iEOmkK_YvopsDsoqmB-78" value="Yes" style="edgeStyle=orthogonalEdgeStyle;rounded=0;orthogonalLoop=1;jettySize=auto;html=1;entryX=0;entryY=0.5;entryDx=0;entryDy=0;" edge="1" parent="WIyWlLk6GJQsqaUBKTNV-1" source="R8iEOmkK_YvopsDsoqmB-76" target="R8iEOmkK_YvopsDsoqmB-79">
          <mxGeometry relative="1" as="geometry">
            <mxPoint x="620" y="402.5" as="targetPoint" />
          </mxGeometry>
        </mxCell>
        <mxCell id="R8iEOmkK_YvopsDsoqmB-76" value="Is Being grab by a Captain ?" style="rhombus;whiteSpace=wrap;html=1;" vertex="1" parent="WIyWlLk6GJQsqaUBKTNV-1">
          <mxGeometry x="450" y="362.5" width="105" height="80" as="geometry" />
        </mxCell>
        <mxCell id="R8iEOmkK_YvopsDsoqmB-81" style="edgeStyle=orthogonalEdgeStyle;rounded=0;orthogonalLoop=1;jettySize=auto;html=1;entryX=0;entryY=0.5;entryDx=0;entryDy=0;" edge="1" parent="WIyWlLk6GJQsqaUBKTNV-1" source="R8iEOmkK_YvopsDsoqmB-79" target="R8iEOmkK_YvopsDsoqmB-80">
          <mxGeometry relative="1" as="geometry" />
        </mxCell>
        <mxCell id="R8iEOmkK_YvopsDsoqmB-79" value="Grabed" style="rounded=1;whiteSpace=wrap;html=1;fontSize=12;glass=0;strokeWidth=1;shadow=0;fillColor=#dae8fc;strokeColor=#6c8ebf;" vertex="1" parent="WIyWlLk6GJQsqaUBKTNV-1">
          <mxGeometry x="630" y="382.5" width="120" height="40" as="geometry" />
        </mxCell>
        <mxCell id="R8iEOmkK_YvopsDsoqmB-82" value="No" style="edgeStyle=orthogonalEdgeStyle;rounded=0;orthogonalLoop=1;jettySize=auto;html=1;entryX=0.5;entryY=0;entryDx=0;entryDy=0;" edge="1" parent="WIyWlLk6GJQsqaUBKTNV-1" source="R8iEOmkK_YvopsDsoqmB-80" target="R8iEOmkK_YvopsDsoqmB-79">
          <mxGeometry relative="1" as="geometry">
            <Array as="points">
              <mxPoint x="690" y="363" />
            </Array>
          </mxGeometry>
        </mxCell>
        <mxCell id="R8iEOmkK_YvopsDsoqmB-83" value="Yes" style="edgeStyle=orthogonalEdgeStyle;rounded=0;orthogonalLoop=1;jettySize=auto;html=1;entryX=0;entryY=0.5;entryDx=0;entryDy=0;" edge="1" parent="WIyWlLk6GJQsqaUBKTNV-1" source="R8iEOmkK_YvopsDsoqmB-80" target="R8iEOmkK_YvopsDsoqmB-84">
          <mxGeometry relative="1" as="geometry">
            <mxPoint x="990" y="402.5" as="targetPoint" />
          </mxGeometry>
        </mxCell>
        <mxCell id="R8iEOmkK_YvopsDsoqmB-80" value="Is Being throw by a Captain ?" style="rhombus;whiteSpace=wrap;html=1;" vertex="1" parent="WIyWlLk6GJQsqaUBKTNV-1">
          <mxGeometry x="810" y="362.5" width="105" height="80" as="geometry" />
        </mxCell>
        <mxCell id="R8iEOmkK_YvopsDsoqmB-85" style="edgeStyle=orthogonalEdgeStyle;rounded=0;orthogonalLoop=1;jettySize=auto;html=1;" edge="1" parent="WIyWlLk6GJQsqaUBKTNV-1" source="R8iEOmkK_YvopsDsoqmB-84">
          <mxGeometry relative="1" as="geometry">
            <mxPoint x="1190" y="402.5" as="targetPoint" />
          </mxGeometry>
        </mxCell>
        <mxCell id="R8iEOmkK_YvopsDsoqmB-84" value="Throwed" style="rounded=1;whiteSpace=wrap;html=1;fontSize=12;glass=0;strokeWidth=1;shadow=0;fillColor=#dae8fc;strokeColor=#6c8ebf;" vertex="1" parent="WIyWlLk6GJQsqaUBKTNV-1">
          <mxGeometry x="1000" y="382.5" width="120" height="40" as="geometry" />
        </mxCell>
        <mxCell id="R8iEOmkK_YvopsDsoqmB-87" value="No" style="edgeStyle=orthogonalEdgeStyle;rounded=0;orthogonalLoop=1;jettySize=auto;html=1;" edge="1" parent="WIyWlLk6GJQsqaUBKTNV-1" source="R8iEOmkK_YvopsDsoqmB-86" target="R8iEOmkK_YvopsDsoqmB-88">
          <mxGeometry relative="1" as="geometry">
            <mxPoint x="1240.5" y="290" as="targetPoint" />
          </mxGeometry>
        </mxCell>
        <mxCell id="R8iEOmkK_YvopsDsoqmB-90" value="Yes" style="edgeStyle=orthogonalEdgeStyle;rounded=0;orthogonalLoop=1;jettySize=auto;html=1;entryX=1;entryY=0.5;entryDx=0;entryDy=0;" edge="1" parent="WIyWlLk6GJQsqaUBKTNV-1" source="R8iEOmkK_YvopsDsoqmB-86" target="R8iEOmkK_YvopsDsoqmB-65">
          <mxGeometry relative="1" as="geometry">
            <Array as="points">
              <mxPoint x="1241" y="636" />
            </Array>
          </mxGeometry>
        </mxCell>
        <mxCell id="R8iEOmkK_YvopsDsoqmB-86" value="Is Touching ground ?" style="rhombus;whiteSpace=wrap;html=1;" vertex="1" parent="WIyWlLk6GJQsqaUBKTNV-1">
          <mxGeometry x="1188" y="362.5" width="105" height="80" as="geometry" />
        </mxCell>
        <mxCell id="R8iEOmkK_YvopsDsoqmB-89" style="edgeStyle=orthogonalEdgeStyle;rounded=0;orthogonalLoop=1;jettySize=auto;html=1;entryX=0.5;entryY=0;entryDx=0;entryDy=0;" edge="1" parent="WIyWlLk6GJQsqaUBKTNV-1" source="R8iEOmkK_YvopsDsoqmB-88" target="R8iEOmkK_YvopsDsoqmB-84">
          <mxGeometry relative="1" as="geometry" />
        </mxCell>
        <mxCell id="R8iEOmkK_YvopsDsoqmB-88" value="UpdateThrow" style="rounded=0;whiteSpace=wrap;html=1;fontSize=12;glass=0;strokeWidth=1;shadow=0;fillColor=#f5f5f5;fontColor=#333333;strokeColor=#666666;" vertex="1" parent="WIyWlLk6GJQsqaUBKTNV-1">
          <mxGeometry x="1181" y="250" width="120" height="40" as="geometry" />
        </mxCell>
        <mxCell id="R8iEOmkK_YvopsDsoqmB-94" value="Yes" style="edgeStyle=orthogonalEdgeStyle;rounded=0;orthogonalLoop=1;jettySize=auto;html=1;entryX=0.5;entryY=0;entryDx=0;entryDy=0;" edge="1" parent="WIyWlLk6GJQsqaUBKTNV-1" source="R8iEOmkK_YvopsDsoqmB-92" target="R8iEOmkK_YvopsDsoqmB-95">
          <mxGeometry relative="1" as="geometry">
            <mxPoint x="330" y="920" as="targetPoint" />
          </mxGeometry>
        </mxCell>
        <mxCell id="R8iEOmkK_YvopsDsoqmB-102" value="" style="edgeStyle=orthogonalEdgeStyle;rounded=0;orthogonalLoop=1;jettySize=auto;html=1;" edge="1" parent="WIyWlLk6GJQsqaUBKTNV-1" source="R8iEOmkK_YvopsDsoqmB-92" target="R8iEOmkK_YvopsDsoqmB-101">
          <mxGeometry relative="1" as="geometry" />
        </mxCell>
        <mxCell id="R8iEOmkK_YvopsDsoqmB-92" value="Is Near enought of an Item ?" style="rhombus;whiteSpace=wrap;html=1;" vertex="1" parent="WIyWlLk6GJQsqaUBKTNV-1">
          <mxGeometry x="277.5" y="750" width="105" height="80" as="geometry" />
        </mxCell>
        <mxCell id="R8iEOmkK_YvopsDsoqmB-97" style="edgeStyle=orthogonalEdgeStyle;rounded=0;orthogonalLoop=1;jettySize=auto;html=1;entryX=1;entryY=0.5;entryDx=0;entryDy=0;" edge="1" parent="WIyWlLk6GJQsqaUBKTNV-1" source="R8iEOmkK_YvopsDsoqmB-95" target="R8iEOmkK_YvopsDsoqmB-96">
          <mxGeometry relative="1" as="geometry" />
        </mxCell>
        <mxCell id="R8iEOmkK_YvopsDsoqmB-95" value="Carrying" style="rounded=1;whiteSpace=wrap;html=1;fontSize=12;glass=0;strokeWidth=1;shadow=0;fillColor=#dae8fc;strokeColor=#6c8ebf;" vertex="1" parent="WIyWlLk6GJQsqaUBKTNV-1">
          <mxGeometry x="270" y="920" width="120" height="40" as="geometry" />
        </mxCell>
        <mxCell id="R8iEOmkK_YvopsDsoqmB-98" value="Yes" style="edgeStyle=orthogonalEdgeStyle;rounded=0;orthogonalLoop=1;jettySize=auto;html=1;entryX=0;entryY=0.5;entryDx=0;entryDy=0;" edge="1" parent="WIyWlLk6GJQsqaUBKTNV-1" source="R8iEOmkK_YvopsDsoqmB-96" target="R8iEOmkK_YvopsDsoqmB-70">
          <mxGeometry relative="1" as="geometry">
            <Array as="points">
              <mxPoint x="163" y="403" />
            </Array>
          </mxGeometry>
        </mxCell>
        <mxCell id="R8iEOmkK_YvopsDsoqmB-99" value="No" style="edgeStyle=orthogonalEdgeStyle;rounded=0;orthogonalLoop=1;jettySize=auto;html=1;entryX=0.5;entryY=1;entryDx=0;entryDy=0;" edge="1" parent="WIyWlLk6GJQsqaUBKTNV-1" source="R8iEOmkK_YvopsDsoqmB-96" target="R8iEOmkK_YvopsDsoqmB-95">
          <mxGeometry relative="1" as="geometry">
            <Array as="points">
              <mxPoint x="330" y="980" />
            </Array>
          </mxGeometry>
        </mxCell>
        <mxCell id="R8iEOmkK_YvopsDsoqmB-96" value="Is Being called by a Captain ?" style="rhombus;whiteSpace=wrap;html=1;" vertex="1" parent="WIyWlLk6GJQsqaUBKTNV-1">
          <mxGeometry x="110" y="900" width="105" height="80" as="geometry" />
        </mxCell>
        <mxCell id="R8iEOmkK_YvopsDsoqmB-103" value="No" style="edgeStyle=orthogonalEdgeStyle;rounded=0;orthogonalLoop=1;jettySize=auto;html=1;entryX=1;entryY=0.5;entryDx=0;entryDy=0;" edge="1" parent="WIyWlLk6GJQsqaUBKTNV-1" source="R8iEOmkK_YvopsDsoqmB-101" target="R8iEOmkK_YvopsDsoqmB-65">
          <mxGeometry relative="1" as="geometry">
            <Array as="points">
              <mxPoint x="515" y="636" />
            </Array>
          </mxGeometry>
        </mxCell>
        <mxCell id="R8iEOmkK_YvopsDsoqmB-104" value="Yes" style="edgeStyle=orthogonalEdgeStyle;rounded=0;orthogonalLoop=1;jettySize=auto;html=1;" edge="1" parent="WIyWlLk6GJQsqaUBKTNV-1" source="R8iEOmkK_YvopsDsoqmB-101">
          <mxGeometry relative="1" as="geometry">
            <mxPoint x="660" y="790" as="targetPoint" />
          </mxGeometry>
        </mxCell>
        <mxCell id="R8iEOmkK_YvopsDsoqmB-101" value="Is Near enought of an Ennemy ?" style="rhombus;whiteSpace=wrap;html=1;" vertex="1" parent="WIyWlLk6GJQsqaUBKTNV-1">
          <mxGeometry x="462.5" y="750" width="105" height="80" as="geometry" />
        </mxCell>
        <mxCell id="R8iEOmkK_YvopsDsoqmB-107" style="edgeStyle=orthogonalEdgeStyle;rounded=0;orthogonalLoop=1;jettySize=auto;html=1;entryX=0.5;entryY=1;entryDx=0;entryDy=0;" edge="1" parent="WIyWlLk6GJQsqaUBKTNV-1" source="R8iEOmkK_YvopsDsoqmB-105" target="R8iEOmkK_YvopsDsoqmB-106">
          <mxGeometry relative="1" as="geometry" />
        </mxCell>
        <mxCell id="R8iEOmkK_YvopsDsoqmB-105" value="Fighting" style="rounded=1;whiteSpace=wrap;html=1;fontSize=12;glass=0;strokeWidth=1;shadow=0;fillColor=#dae8fc;strokeColor=#6c8ebf;" vertex="1" parent="WIyWlLk6GJQsqaUBKTNV-1">
          <mxGeometry x="660" y="770" width="120" height="40" as="geometry" />
        </mxCell>
        <mxCell id="R8iEOmkK_YvopsDsoqmB-108" value="Yes" style="edgeStyle=orthogonalEdgeStyle;rounded=0;orthogonalLoop=1;jettySize=auto;html=1;entryX=1;entryY=0.5;entryDx=0;entryDy=0;" edge="1" parent="WIyWlLk6GJQsqaUBKTNV-1" source="R8iEOmkK_YvopsDsoqmB-106" target="R8iEOmkK_YvopsDsoqmB-65">
          <mxGeometry relative="1" as="geometry" />
        </mxCell>
        <mxCell id="R8iEOmkK_YvopsDsoqmB-109" value="No" style="edgeStyle=orthogonalEdgeStyle;rounded=0;orthogonalLoop=1;jettySize=auto;html=1;entryX=1;entryY=0.5;entryDx=0;entryDy=0;" edge="1" parent="WIyWlLk6GJQsqaUBKTNV-1" source="R8iEOmkK_YvopsDsoqmB-106" target="R8iEOmkK_YvopsDsoqmB-105">
          <mxGeometry relative="1" as="geometry" />
        </mxCell>
        <mxCell id="R8iEOmkK_YvopsDsoqmB-106" value="Is Being called by a Captain ?" style="rhombus;whiteSpace=wrap;html=1;" vertex="1" parent="WIyWlLk6GJQsqaUBKTNV-1">
          <mxGeometry x="667.5" y="656.25" width="105" height="80" as="geometry" />
        </mxCell>
      </root>
    </mxGraphModel>
  </diagram>
</mxfile>
